<svg width="41" height="40" viewBox="0 0 41 40" fill="none" xmlns="http://www.w3.org/2000/svg">
<path d="M31.5483 6.62421C34.1028 3.82166 37.2534 1.61359 41 0V7.64331C39.1267 8.74735 37.594 10.1486 36.4019 11.8471C35.3801 13.4607 34.6137 15.2442 34.1028 17.1975C33.5068 19.3206 33.1661 21.4013 33.081 23.4395H41V40H24.3956V29.6815C24.3956 23.6518 24.9917 18.9384 26.1838 15.5414C27.2908 12.3992 29.0789 9.42676 31.5483 6.62421ZM7.15265 6.62421C9.70716 3.82166 12.8577 1.61359 16.6044 0V7.64331C14.5607 8.74735 13.028 10.1486 12.0062 11.8471C11.0696 13.3758 10.2606 15.1592 9.57944 17.1975C9.06854 19.0658 8.81308 21.1465 8.81308 23.4395H16.6044V40H0V29.6815C0 23.3121 0.596054 18.5987 1.78816 15.5414C2.80997 12.3992 4.59813 9.42676 7.15265 6.62421Z" fill="#75ACFF"/>
</svg>
