<svg width="34" height="33" viewBox="0 0 34 33" fill="none" xmlns="http://www.w3.org/2000/svg">
<path d="M26.162 5.46497C28.2804 3.15287 30.893 1.33121 34 0V6.30573C32.4465 7.21656 31.1755 8.37261 30.1869 9.77389C29.3396 11.1051 28.7041 12.5764 28.2804 14.1879C27.7861 15.9395 27.5036 17.656 27.433 19.3376H34V33H20.2305V24.4873C20.2305 19.5127 20.7248 15.6242 21.7134 12.8217C22.6314 10.2293 24.1142 7.77707 26.162 5.46497ZM5.93146 5.46497C8.04984 3.15287 10.6625 1.33121 13.7695 0V6.30573C12.0748 7.21656 10.8037 8.37261 9.95639 9.77389C9.17965 11.035 8.50883 12.5064 7.94393 14.1879C7.52025 15.7293 7.30841 17.4459 7.30841 19.3376H13.7695V33H0V24.4873C0 19.2325 0.494289 15.344 1.48287 12.8217C2.33022 10.2293 3.81308 7.77707 5.93146 5.46497Z" fill="#75ACFF"/>
</svg>
