<svg width="7" height="13" viewBox="0 0 7 13" fill="none" xmlns="http://www.w3.org/2000/svg">
<path d="M6.74581 0.0025977L5.1268 0C3.30789 0 2.13243 1.20598 2.13243 3.07256V4.48922H0.504575C0.363909 4.48922 0.25 4.60326 0.25 4.74392V6.7965C0.25 6.93717 0.364039 7.05107 0.504575 7.05107H2.13243V12.2304C2.13243 12.371 2.24633 12.4849 2.387 12.4849H4.51088C4.65155 12.4849 4.76546 12.3709 4.76546 12.2304V7.05107H6.66879C6.80946 7.05107 6.92337 6.93717 6.92337 6.7965L6.92415 4.74392C6.92415 4.67638 6.89726 4.6117 6.84959 4.5639C6.80193 4.51611 6.73698 4.48922 6.66944 4.48922H4.76546V3.2883C4.76546 2.71109 4.903 2.41807 5.65491 2.41807L6.74555 2.41768C6.88609 2.41768 7 2.30364 7 2.16311V0.257173C7 0.116767 6.88622 0.00285747 6.74581 0.0025977Z" fill="#E7EBF5"/>
</svg>
