<svg width="14" height="10" viewBox="0 0 14 10" fill="none" xmlns="http://www.w3.org/2000/svg">
<path d="M12.54 1.27259C12.0783 0.723839 11.2261 0.5 9.59838 0.5H3.68992C2.02499 0.5 1.15827 0.738277 0.698379 1.3225C0.25 1.89212 0.25 2.73142 0.25 3.89302V6.10702C0.25 8.35742 0.781999 9.5 3.68992 9.5H9.59842C11.0099 9.5 11.7921 9.30248 12.2981 8.81821C12.817 8.32161 13.0384 7.51078 13.0384 6.10702V3.89302C13.0384 2.66801 13.0037 1.82377 12.54 1.27259ZM8.46021 5.30568L5.7772 6.70792C5.71722 6.73927 5.65163 6.75482 5.58612 6.75482C5.51194 6.75482 5.43793 6.73485 5.37238 6.69517C5.24895 6.62038 5.17359 6.48659 5.17359 6.34229V3.54682C5.17359 3.40277 5.24875 3.26911 5.37193 3.19427C5.49515 3.11944 5.64841 3.11433 5.77625 3.18074L8.45926 4.57394C8.59577 4.64481 8.68149 4.78573 8.6817 4.93948C8.68186 5.09336 8.59651 5.23448 8.46021 5.30568Z" fill="#E7EBF5"/>
</svg>
