<svg width="134" height="57" viewBox="0 0 134 57" fill="none" xmlns="http://www.w3.org/2000/svg">
<path fill-rule="evenodd" clip-rule="evenodd" d="M14.7166 40.8264L0 44.0484L9.73504 30.6143L14.7166 40.8264Z" fill="#F7913F"/>
<path fill-rule="evenodd" clip-rule="evenodd" d="M16.5047 44.0487H0L19.6178 39.7539L16.5047 44.0487Z" fill="#F57F3F"/>
<path fill-rule="evenodd" clip-rule="evenodd" d="M14.7159 40.8264L19.6172 39.7536L26.2402 30.6143H9.73438L14.7159 40.8264Z" fill="#F5841F"/>
<path fill-rule="evenodd" clip-rule="evenodd" d="M29.2254 26.4934H12.7207L19.6264 16.9638L23.9798 16.085L29.2254 26.4934Z" fill="#3084C6"/>
<path fill-rule="evenodd" clip-rule="evenodd" d="M29.2261 26.4928L23.9805 16.0843L38.9611 13.0586L29.2261 26.4928Z" fill="#006EAD"/>
<path fill-rule="evenodd" clip-rule="evenodd" d="M19.627 16.9631L38.9609 13.0586H22.4563L19.627 16.9631Z" fill="#0079BF"/>
<path fill-rule="evenodd" clip-rule="evenodd" d="M25.7218 44.0484H21.8711L31.6061 30.6143L25.7218 44.0484Z" fill="#578FA2"/>
<path fill-rule="evenodd" clip-rule="evenodd" d="M38.3766 44.0484H25.7227L31.607 30.6143L38.3766 44.0484Z" fill="#6EA1B0"/>
<path fill-rule="evenodd" clip-rule="evenodd" d="M38.3751 44.0484L48.1101 30.6143H31.6055L38.3751 44.0484Z" fill="#B2D341"/>
<path fill-rule="evenodd" clip-rule="evenodd" d="M50.0193 13.0586L34.5547 26.4928L44.2909 13.0586H50.0193Z" fill="#ED1260"/>
<path fill-rule="evenodd" clip-rule="evenodd" d="M51.0593 26.4925H34.5547L45.9242 16.6152L51.0593 26.4925Z" fill="#950049"/>
<path fill-rule="evenodd" clip-rule="evenodd" d="M51.0589 26.4928L60.7951 13.0586H50.0189L45.9238 16.6155L51.0589 26.4928Z" fill="#BD0855"/>
<path d="M72.7854 0H72.2305V57H72.7854V0Z" fill="#CDCCCB"/>
<path d="M80.7977 7.01758V15.7145H83.4537V7.01758H84.5508V15.7284L85.1998 15.7422L85.1417 18.679H84.261L84.2029 16.673H79.6855V7.01758H80.7977Z" fill="white"/>
<path d="M87.5368 12.0895V15.7145H90.3079V16.6742H86.4258V7.01758H90.1357V7.97724H87.5379V11.1576H89.9775V12.0895H87.5368Z" fill="white"/>
<path d="M92.6462 7.01758V11.1587H95.3743V7.01758H96.4853V16.6742H95.3743V12.1611H92.6462V16.6742H91.5352V7.01758H92.6462Z" fill="white"/>
<path d="M99.2577 8.00611H97.4824V7.01758H102.144V8.00611H100.368V16.6742H99.2577V8.00611Z" fill="white"/>
<path d="M103.229 7.16151C103.677 7.04719 104.211 6.97559 104.846 6.97559C105.741 6.97559 106.491 7.19039 106.997 7.69158C107.473 8.15005 107.718 8.85218 107.718 9.68366C107.718 10.5717 107.502 11.1734 107.126 11.6607C106.592 12.3767 105.697 12.7347 104.831 12.7347C104.643 12.7347 104.499 12.7347 104.34 12.7209V16.675H103.229V7.16151ZM104.34 11.7901C104.47 11.8189 104.585 11.8328 104.773 11.8328C105.87 11.8328 106.606 11.1168 106.606 9.75526C106.606 8.76673 106.187 7.87866 104.961 7.87866C104.702 7.87866 104.485 7.90753 104.341 7.95026V11.7901H104.34Z" fill="white"/>
<path d="M83.8131 21.3457V22.3053H80.7965V25.1993C81.042 25.1566 81.2875 25.1416 81.533 25.1416C82.3846 25.1416 83.1058 25.4141 83.6119 25.9015C84.1319 26.3888 84.4344 27.1048 84.4344 28.0079C84.4344 28.8821 84.189 29.5842 83.7411 30.0854C83.178 30.7298 82.2972 31.0601 81.1432 31.0601C80.4219 31.0601 79.988 31.0174 79.6855 30.9596V21.3457H83.8131ZM80.7965 30.1154C80.9838 30.1582 81.1571 30.1582 81.3596 30.1582C82.0239 30.1582 82.5289 29.9145 82.8465 29.4988C83.135 29.1258 83.2943 28.6396 83.2943 28.0656C83.2943 27.4928 83.107 27.0055 82.7742 26.6475C82.4415 26.2895 81.9517 26.0597 81.3456 26.0597C81.1723 26.0597 80.9851 26.0736 80.7978 26.1024V30.1154H80.7965Z" fill="white"/>
<path d="M86.8317 21.3457V31.0024H85.7207V21.3457H86.8317Z" fill="white"/>
<path d="M88.5918 21.4906C89.0397 21.3763 89.5737 21.3047 90.2089 21.3047C91.1035 21.3047 91.8539 21.5195 92.3599 22.0207C92.8357 22.4792 93.0812 23.1813 93.0812 24.0128C93.0812 24.9008 92.8648 25.5025 92.4891 25.9898C91.9551 26.7058 91.0604 27.0638 90.1937 27.0638C90.0064 27.0638 89.8622 27.0638 89.7028 27.05V31.0041H88.5918V21.4906ZM89.7028 26.118C89.8331 26.1469 89.9483 26.1608 90.1356 26.1608C91.2326 26.1608 91.969 25.4448 91.969 24.0832C91.969 23.0947 91.5502 22.2066 90.324 22.2066C90.0646 22.2066 89.8482 22.2355 89.704 22.2782V26.118H89.7028Z" fill="white"/>
<path d="M94.6674 21.3457L96.7742 25.7444H96.9767V21.3457H98.0156V25.7444H98.2319L100.325 21.3457H101.553L99.0556 25.8449C100.311 26.0597 100.745 27.2353 100.991 28.4098C101.178 29.284 101.337 30.172 101.64 31.0035H100.543C100.297 30.4446 100.124 29.299 99.9793 28.6823C99.7478 27.5933 99.4023 26.547 98.1749 26.547H98.0167V31.0035H96.9778V26.547H96.8336C95.5783 26.547 95.2456 27.5933 95.0001 28.6823C94.8558 29.2978 94.6825 30.4446 94.437 31.0035H93.3691C93.6727 30.172 93.817 29.284 94.0043 28.4098C94.2497 27.2353 94.7116 26.0597 95.9529 25.8449L93.4412 21.3457H94.6674Z" fill="white"/>
<path d="M107.732 26.1036C107.732 29.7286 106.477 31.1178 104.918 31.1178C103.301 31.1178 102.219 29.4133 102.219 26.1602C102.219 22.9648 103.374 21.2314 105.077 21.2314C106.736 21.2314 107.732 23.0225 107.732 26.1036ZM103.373 26.1752C103.373 28.1673 103.763 30.1443 104.99 30.1443C106.246 30.1443 106.578 28.0379 106.578 26.1463C106.578 24.3413 106.247 22.206 104.976 22.206C103.763 22.206 103.373 24.212 103.373 26.1752Z" fill="white"/>
<path d="M109.059 21.4906C109.52 21.3763 110.068 21.3047 110.69 21.3047C111.57 21.3047 112.321 21.4906 112.841 21.978C113.259 22.3648 113.476 22.9376 113.476 23.6259C113.476 24.6144 112.928 25.402 111.975 25.775V25.8039C113.101 26.1053 113.78 27.0072 113.78 28.2683C113.78 29.0709 113.52 29.7153 113.086 30.1888C112.538 30.8043 111.628 31.063 110.517 31.063C109.796 31.063 109.362 31.0203 109.06 30.9625V21.4906H109.059ZM110.171 25.4448H110.676C111.585 25.4448 112.365 24.7565 112.365 23.7402C112.365 22.8522 111.946 22.1639 110.763 22.1639C110.503 22.1639 110.301 22.1928 110.171 22.2355V25.4448ZM110.171 30.1299C110.301 30.1588 110.488 30.1876 110.734 30.1876C111.889 30.1876 112.639 29.5144 112.639 28.2672C112.639 26.9345 111.702 26.304 110.662 26.2901H110.171V30.1299Z" fill="white"/>
<path d="M116.075 21.3457V24.7986C116.075 26.4754 116.032 27.7076 115.944 29.2262H115.974C116.305 28.18 116.825 26.905 117.229 25.8588L118.975 21.3457H120.014V31.0024H119.018V27.6637C119.018 25.6001 119.047 24.3967 119.133 23.108H119.104C118.757 24.3113 118.311 25.3714 117.935 26.3461L116.117 31.0024H115.062V21.3457H116.075Z" fill="white"/>
<path d="M125.182 31.0034L124.301 28.6822C124.099 28.1521 123.925 27.6509 123.709 26.9915H123.666C123.449 27.6359 123.262 28.1949 123.074 28.7111L122.236 31.0034H121.096L123.103 26.0746L121.168 21.3467H122.323L123.189 23.5825C123.376 24.0271 123.536 24.4856 123.766 25.1161H123.795C124.011 24.4428 124.156 24.0132 124.315 23.5398L125.108 21.3479H126.248L124.343 26.048L126.35 31.0057H125.182V31.0034Z" fill="white"/>
<path d="M80.8261 36.6633H79.0508V35.6748H83.7124V36.6633H81.9371V45.3315H80.8261V36.6633Z" fill="white"/>
<path d="M85.9059 40.7468V44.3718H88.677V45.3315H84.7949V35.6748H88.5049V36.6344H85.9071V39.8148H88.3466V40.7468H85.9059Z" fill="white"/>
<path d="M93.326 45.3315L92.4453 43.0103C92.2429 42.4802 92.0695 41.979 91.8531 41.3196H91.8101C91.5937 41.964 91.4064 42.5229 91.218 43.0391L90.3803 45.3315H89.2402L91.247 40.4026L89.3124 35.6748H90.4676L91.3331 37.9105C91.5204 38.3551 91.6798 38.8136 91.9102 39.4441H91.9392C92.1556 38.7709 92.2999 38.3413 92.4593 37.8678L93.2527 35.6759H94.3928L92.4872 40.3761L94.494 45.3338H93.326V45.3315Z" fill="white"/>
<path d="M96.6755 35.6748V39.816H99.4035V35.6748H100.515V45.3315H99.4035V40.8184H96.6755V45.3315H95.5645V35.6748H96.6755Z" fill="white"/>
<path d="M107.355 40.4318C107.355 44.0568 106.1 45.4461 104.541 45.4461C102.924 45.4461 101.842 43.7416 101.842 40.4884C101.842 37.293 102.997 35.5596 104.701 35.5596C106.36 35.5596 107.355 37.3507 107.355 40.4318ZM102.996 40.5034C102.996 42.4955 103.386 44.4726 104.613 44.4726C105.869 44.4726 106.201 42.3662 106.201 40.4745C106.201 38.6696 105.87 36.5343 104.599 36.5343C103.386 36.5343 102.996 38.5402 102.996 40.5034Z" fill="white"/>
<path d="M113.1 35.6748V45.3315H111.989V36.6344H109.939V39.9303C109.939 42.4375 109.853 44.3718 108.756 45.1317C108.511 45.3176 108.208 45.4331 107.862 45.4331L107.645 44.5023C107.832 44.4596 108.021 44.388 108.165 44.2586C108.757 43.7424 108.916 42.4675 108.916 40.0897V35.6771H113.1V35.6748Z" fill="white"/>
<path d="M119.956 40.4318C119.956 44.0568 118.701 45.4461 117.142 45.4461C115.525 45.4461 114.443 43.7416 114.443 40.4884C114.443 37.293 115.598 35.5596 117.301 35.5596C118.96 35.5596 119.956 37.3507 119.956 40.4318ZM115.597 40.5034C115.597 42.4955 115.987 44.4726 117.214 44.4726C118.469 44.4726 118.802 42.3662 118.802 40.4745C118.802 38.6696 118.47 36.5343 117.2 36.5343C115.987 36.5343 115.597 38.5402 115.597 40.5034Z" fill="white"/>
<path d="M125.095 35.6748V36.6344H122.396V45.3315H121.285V35.6748H125.095Z" fill="white"/>
<path d="M127.291 35.6748V45.3315H126.18V35.6748H127.291Z" fill="white"/>
<path d="M130.061 35.6748V39.1277C130.061 40.8045 130.018 42.0367 129.931 43.5553H129.96C130.291 42.5091 130.811 41.2341 131.215 40.1879L132.961 35.6748H134V45.3315H133.004V41.9929C133.004 39.9292 133.033 38.7258 133.119 37.4371H133.09C132.744 38.6404 132.297 39.7005 131.921 40.6752L130.103 45.3315H129.049V35.6748H130.061ZM130.71 33.9414C130.782 34.3421 130.956 34.729 131.533 34.729C132.067 34.729 132.283 34.356 132.341 33.9414H133.164C133.033 34.8872 132.499 35.3306 131.519 35.3306C130.595 35.3306 129.989 34.886 129.902 33.9414H130.71Z" fill="white"/>
</svg>
