<svg width="198" height="25" viewBox="0 0 198 25" fill="none" xmlns="http://www.w3.org/2000/svg">
<path fill-rule="evenodd" clip-rule="evenodd" d="M5.53122 17.8779L0 19.2918L3.65915 13.3999L5.53122 17.8779Z" fill="#F2913D"/>
<path fill-rule="evenodd" clip-rule="evenodd" d="M6.20322 19.2921H0L7.3727 17.4082L6.20322 19.2921Z" fill="#F07A3D"/>
<path fill-rule="evenodd" clip-rule="evenodd" d="M5.53222 17.8779L7.37366 17.4079L9.86339 13.3999H3.66016L5.53222 17.8779Z" fill="#F0801A"/>
<path fill-rule="evenodd" clip-rule="evenodd" d="M10.9834 11.591H4.78125L7.37628 7.41233L9.01266 7.02637L10.9834 11.591Z" fill="#3685C4"/>
<path fill-rule="evenodd" clip-rule="evenodd" d="M10.9824 11.5912L9.01172 7.02648L14.6415 5.69922L10.9824 11.5912Z" fill="#086EAB"/>
<path fill-rule="evenodd" clip-rule="evenodd" d="M7.37695 7.41244L14.6431 5.69922H8.43991L7.37695 7.41244Z" fill="#1A78BD"/>
<path fill-rule="evenodd" clip-rule="evenodd" d="M9.66785 19.2917H8.2207L11.8787 13.3984L9.66785 19.2917Z" fill="#6194AB"/>
<path fill-rule="evenodd" clip-rule="evenodd" d="M14.4229 19.2917H9.66797L11.8789 13.3984L14.4229 19.2917Z" fill="#7AA8B8"/>
<path fill-rule="evenodd" clip-rule="evenodd" d="M14.4229 19.2917L18.0821 13.3984H11.8789L14.4229 19.2917Z" fill="#BDD130"/>
<path fill-rule="evenodd" clip-rule="evenodd" d="M18.7986 5.69922L12.9863 11.5925L16.6455 5.69922H18.7986Z" fill="#E51759"/>
<path fill-rule="evenodd" clip-rule="evenodd" d="M19.1895 11.5908H12.9863L17.2597 7.25977L19.1895 11.5908Z" fill="#991F4A"/>
<path fill-rule="evenodd" clip-rule="evenodd" d="M19.1896 11.5912L22.8476 5.69922H18.7975L17.2598 7.26016L19.1896 11.5912Z" fill="#BF1C54"/>
<path d="M28.4956 0H28.2871V25H28.4956V0Z" fill="#D6D4D1"/>
<path d="M35.8001 5.64355V17.711H38.9573V5.64355H40.2616V17.7307L41.0333 17.7504L40.9642 21.8254H39.9171L39.848 19.0422H34.4766V5.64355H35.8001Z" fill="white"/>
<path d="M46.731 12.6803H43.8311V17.7097H47.1253V19.0422H42.5098V5.64355H46.9203V6.97606H43.8311V11.3898H46.731V12.6803Z" fill="white"/>
<path d="M49.9053 5.64355V11.3884H53.1486V5.64355H54.4699V19.0422H53.1486V12.78H49.9053V19.0422H48.584V5.64355H49.9053Z" fill="white"/>
<path d="M57.7635 7.01545H55.6523V5.64355H61.1949V7.01545H59.0838V19.0422H57.7624V7.01545H57.7635Z" fill="white"/>
<path d="M62.4815 5.84212C63.0131 5.68327 63.6488 5.5835 64.4035 5.5835C65.4676 5.5835 66.3594 5.88151 66.9601 6.5773C67.5267 7.21402 67.8179 8.18813 67.8179 9.34077C67.8179 10.5735 67.5607 11.4084 67.1142 12.0846C66.4796 13.0784 65.4155 13.5759 64.3854 13.5759C64.1621 13.5759 63.9911 13.5759 63.8018 13.5563V19.0425H62.4805V5.84212H62.4815ZM63.8029 12.2631C63.957 12.3025 64.0942 12.3235 64.3174 12.3235C65.6217 12.3235 66.4966 11.3297 66.4966 9.44052C66.4966 8.06866 65.9991 6.83593 64.5407 6.83593C64.2312 6.83593 63.974 6.87531 63.8029 6.9357V12.2631Z" fill="white"/>
<path d="M77.4349 5.64355V6.97606H73.8484V10.992C74.1398 10.9329 74.4318 10.9119 74.7231 10.9119C75.7349 10.9119 76.5939 11.29 77.1945 11.9661C77.8123 12.6422 78.1726 13.636 78.1726 14.8884C78.1726 16.1014 77.8812 17.0756 77.3488 17.7713C76.6793 18.6654 75.633 19.1236 74.2596 19.1236C73.4021 19.1236 72.8876 19.0645 72.5273 18.9844V5.64355H77.4349ZM73.8491 17.8094C74.073 17.8698 74.279 17.8698 74.5194 17.8698C75.3094 17.8698 75.9093 17.5311 76.2868 16.9548C76.6305 16.4375 76.8185 15.7614 76.8185 14.9672C76.8185 14.1716 76.5953 13.4955 76.2006 12.9993C75.8067 12.5017 75.2226 12.184 74.5021 12.184C74.2962 12.184 74.073 12.2037 73.8506 12.2431V17.8094H73.8491Z" fill="white"/>
<path d="M81.0203 5.64355V19.0422H79.6992V5.64355H81.0203Z" fill="white"/>
<path d="M83.1147 5.84212C83.6457 5.68327 84.2815 5.5835 85.0364 5.5835C86.1006 5.5835 86.9925 5.88151 87.5931 6.5773C88.1593 7.21402 88.4507 8.18813 88.4507 9.34077C88.4507 10.5735 88.1938 11.4084 87.7467 12.0846C87.1124 13.0784 86.0482 13.5759 85.0185 13.5759C84.7953 13.5759 84.6238 13.5759 84.4343 13.5563V19.0425H83.1133V5.84212H83.1147ZM84.4358 12.2631C84.5901 12.3025 84.7271 12.3222 84.9503 12.3222C86.2549 12.3222 87.1296 11.3284 87.1296 9.43927C87.1296 8.06735 86.6316 6.83461 85.1735 6.83461C84.8642 6.83461 84.6066 6.874 84.4358 6.93439V12.2631Z" fill="white"/>
<path d="M90.3577 5.64389L92.8627 11.7472H93.1031V5.64389H94.3388V11.7472H94.5957L97.0843 5.64389H98.5424L95.5738 11.8864C97.0663 12.1844 97.5816 13.8149 97.8729 15.4454C98.0961 16.6584 98.2841 17.8912 98.645 19.0439H97.3405C97.0491 18.2679 96.8432 16.6781 96.671 15.8235C96.3961 14.3124 95.9842 12.8618 94.5254 12.8618H94.3359V19.0439H93.101V12.8604H92.9302C91.4376 12.8604 91.0422 14.3111 90.7509 15.8222C90.5794 16.6769 90.3734 18.2679 90.0807 19.0425H88.8105C89.1708 17.8899 89.3423 16.6571 89.5654 15.4441C89.8568 13.8136 90.4065 12.1844 91.8818 11.885L88.8959 5.64258H90.3577V5.64389Z" fill="white"/>
<path d="M105.87 12.2433C105.87 17.2727 104.378 19.2012 102.523 19.2012C100.602 19.2012 99.3145 16.8355 99.3145 12.3233C99.3145 7.88995 100.686 5.48486 102.712 5.48486C104.686 5.48486 105.87 7.96871 105.87 12.2433ZM100.688 12.343C100.688 15.1065 101.151 17.8503 102.61 17.8503C104.102 17.8503 104.498 14.9279 104.498 12.3037C104.498 9.79876 104.104 6.83706 102.593 6.83706C101.151 6.83575 100.688 9.61893 100.688 12.343Z" fill="white"/>
<path d="M107.447 5.84212C107.997 5.68327 108.648 5.5835 109.386 5.5835C110.434 5.5835 111.326 5.84212 111.943 6.51823C112.44 7.05517 112.698 7.85074 112.698 8.80385C112.698 10.1758 112.046 11.2694 110.913 11.7853V11.8246C112.251 12.2421 113.058 13.4945 113.058 15.2432C113.058 16.3565 112.749 17.2505 112.234 17.9069C111.583 18.7616 110.501 19.1199 109.18 19.1199C108.323 19.1199 107.808 19.0609 107.447 18.9808V5.84212ZM108.769 11.3297H109.37C110.45 11.3297 111.377 10.3753 111.377 8.96402C111.377 7.73127 110.88 6.77685 109.472 6.77685C109.163 6.77685 108.923 6.81624 108.769 6.87663V11.3297ZM108.769 17.8294C108.923 17.8689 109.146 17.9095 109.439 17.9095C110.811 17.9095 111.704 16.9749 111.704 15.2459C111.704 13.3974 110.589 12.5218 109.352 12.502H108.769V17.8294Z" fill="white"/>
<path d="M115.788 5.64355V10.434C115.788 12.7603 115.737 14.4696 115.634 16.5767H115.668C116.063 15.126 116.68 13.3563 117.161 11.9057L119.237 5.64355H120.472V19.0422H119.288V14.4106C119.288 11.5473 119.321 9.87743 119.425 8.08933H119.391C118.98 9.75926 118.447 11.2309 118 12.5818L115.838 19.0422H114.586V5.64355H115.788Z" fill="white"/>
<path d="M126.616 19.0425L125.569 15.8222C125.328 15.087 125.122 14.3912 124.865 13.4762H124.814C124.556 14.3702 124.333 15.1461 124.11 15.8615L123.115 19.0425H121.76L124.145 12.204L121.846 5.64389H123.218L124.248 8.74477C124.472 9.36052 124.66 9.99719 124.935 10.8715H124.969C125.226 9.93677 125.399 9.34077 125.587 8.68435L126.53 5.64258H127.886L125.62 12.1634L128.006 19.0412H126.616V19.0425Z" fill="white"/>
<path d="M133.928 7.01545H131.816V5.64355H137.359V7.01545H135.248V19.0422H133.927V7.01545H133.928Z" fill="white"/>
<path d="M142.87 12.6803H139.97V17.7097H143.264V19.0422H138.648V5.64355H143.059V6.97606H139.97V11.3898H142.87V12.6803Z" fill="white"/>
<path d="M148.789 19.0425L147.742 15.8222C147.502 15.087 147.295 14.3912 147.039 13.4762H146.988C146.73 14.3702 146.507 15.1461 146.284 15.8615L145.288 19.0425H143.934L146.319 12.204L144.02 5.64389H145.392L146.422 8.74477C146.645 9.36052 146.833 9.99719 147.109 10.8715H147.143C147.4 9.93677 147.572 9.34077 147.76 8.68435L148.704 5.64258H150.06L147.794 12.1634L150.179 19.0412H148.789V19.0425Z" fill="white"/>
<path d="M152.771 5.64355V11.3884H156.014V5.64355H157.336V19.0422H156.014V12.78H152.771V19.0422H151.449V5.64355H152.771Z" fill="white"/>
<path d="M165.468 12.2433C165.468 17.2727 163.975 19.2012 162.122 19.2012C160.199 19.2012 158.912 16.8355 158.912 12.3233C158.912 7.88995 160.285 5.48486 162.31 5.48486C164.284 5.48486 165.468 7.96871 165.468 12.2433ZM160.286 12.343C160.286 15.1065 160.749 17.8503 162.208 17.8503C163.701 17.8503 164.096 14.9279 164.096 12.3037C164.096 9.79876 163.701 6.83706 162.191 6.83706C160.749 6.83575 160.286 9.61893 160.286 12.343Z" fill="white"/>
<path d="M172.315 5.64355V19.0422H170.993V6.97475H168.557V11.5473C168.557 15.0263 168.454 17.7097 167.15 18.7639C166.859 19.0225 166.498 19.1814 166.086 19.1814L165.828 17.8895C166.051 17.8304 166.275 17.7307 166.446 17.5521C167.15 16.8367 167.338 15.0669 167.338 11.7665V5.64355H172.315Z" fill="white"/>
<path d="M180.466 12.2433C180.466 17.2727 178.973 19.2012 177.12 19.2012C175.197 19.2012 173.91 16.8355 173.91 12.3233C173.91 7.88995 175.283 5.48486 177.308 5.48486C179.282 5.48486 180.466 7.96871 180.466 12.2433ZM175.284 12.343C175.284 15.1065 175.747 17.8503 177.206 17.8503C178.698 17.8503 179.094 14.9279 179.094 12.3037C179.094 9.79876 178.699 6.83706 177.189 6.83706C175.746 6.83575 175.284 9.61893 175.284 12.343Z" fill="white"/>
<path d="M186.574 5.64355V6.97606H183.365V19.0435H182.043V5.64355H186.574Z" fill="white"/>
<path d="M189.167 5.64355V19.0422H187.846V5.64355H189.167Z" fill="white"/>
<path d="M192.462 5.6437V10.4342C192.462 12.7605 192.411 14.4698 192.308 16.5768H192.343C192.737 15.1262 193.354 13.3565 193.834 11.9045L195.91 5.64239H197.146V19.041H195.962V14.4094C195.962 11.5462 195.996 9.87625 196.099 8.08816H196.065C195.654 9.75808 195.121 11.2297 194.675 12.5807L192.512 19.041H191.26V5.6437H192.462ZM193.235 3.2373C193.321 3.79394 193.527 4.33088 194.213 4.33088C194.848 4.33088 195.105 3.81363 195.174 3.2373H196.152C195.998 4.5488 195.362 5.16583 194.196 5.16583C193.098 5.16583 192.377 4.55012 192.274 3.2373H193.235Z" fill="white"/>
</svg>
