<svg width="25" height="25" viewBox="0 0 25 25" fill="none" xmlns="http://www.w3.org/2000/svg">
<path d="M3.3571 20.2375L8.38724 15.1159C7.67874 13.914 7.27074 12.5085 7.27074 11.0076C7.27074 6.59222 10.7988 3 15.1354 3C19.4719 3 23 6.59222 23 11.0076C23 15.423 19.4719 19.0152 15.1354 19.0152C13.6613 19.0152 12.2809 18.5998 11.1004 17.8784L6.0703 23L3.3571 20.2375ZM6.0703 21.3435L8.48901 18.8808L7.40281 17.7748L4.9841 20.2375L6.0703 21.3435ZM21.8495 11.0076C21.8495 7.23813 18.8376 4.17139 15.1354 4.17139C11.4332 4.17139 8.42121 7.23813 8.42121 11.0076C8.42121 14.7771 11.4332 17.8438 15.1354 17.8438C18.8376 17.8438 21.8495 14.7771 21.8495 11.0076ZM9.06019 16.0873L8.21631 16.9465L9.30251 18.0524L10.1464 17.1932C9.75012 16.8613 9.38623 16.4908 9.06019 16.0873Z" fill="#75ACFF"/>
<path d="M11.1469 11.5936H9.95383V10.4222H11.1469C11.3999 8.62779 12.7975 7.20482 14.5599 6.94719V5.73242H15.7103V6.94723C17.4727 7.20486 18.8702 8.62782 19.1233 10.4222H20.3164V11.5936H19.1233C18.8703 13.388 17.4727 14.811 15.7104 15.0686V16.2834H14.5599V15.0686C12.7975 14.8109 11.4 13.388 11.1469 11.5936ZM14.5599 13.8803V12.7664H15.7104V13.8803C16.8372 13.6467 17.7268 12.7409 17.9562 11.5936H16.8622V10.4222H17.9562C17.7268 9.2749 16.8372 8.36907 15.7104 8.13549V9.2494H14.5599V8.13549C13.4331 8.3691 12.5434 9.2749 12.314 10.4222H13.408V11.5936H12.314C12.5434 12.7409 13.4331 13.6467 14.5599 13.8803Z" fill="#75ACFF"/>
</svg>
