<svg width="25" height="25" viewBox="0 0 25 25" fill="none" xmlns="http://www.w3.org/2000/svg">
<path d="M0 16.2324V5.93203H8.83555V5.19844C8.83555 3.98623 9.82173 3 11.0339 3H15.7748L18.7069 5.93203H25V16.2324H22.068V18.3155L15.7645 21.9907C15.4133 22.1955 15.0302 22.2937 14.6522 22.2937C13.9623 22.2937 13.2897 21.966 12.8616 21.36L12.1103 20.2964L3.50029 16.2324H0ZM4.39688 13.6851L9.04512 8.86401H12.8034L15.4403 11.5009C15.5789 11.6395 15.763 11.7158 15.959 11.7158C16.155 11.7158 16.3392 11.6395 16.4777 11.5009C16.6163 11.3624 16.6926 11.1781 16.6926 10.9822C16.6926 10.7862 16.6163 10.602 16.4777 10.4634L13.4111 7.39683H4.39688V13.6851ZM1.46484 14.7676H2.93203V7.39687H1.46484V14.7676ZM18.1001 7.39687L15.1681 4.46484H11.0339C10.6294 4.46484 10.3004 4.79395 10.3004 5.19844V5.93203H14.0179L17.5135 9.42769C17.9288 9.84292 18.1575 10.395 18.1575 10.9822C18.1575 11.5694 17.9288 12.1215 17.5135 12.5367C17.0983 12.952 16.5462 13.1807 15.959 13.1807C15.3718 13.1807 14.8197 12.952 14.4045 12.5367L12.1966 10.3289H9.66758L4.90029 15.2734L12.4263 18.8257L18.1709 14.7676H20.6031V7.39687H18.1001ZM23.5352 7.39687H22.068V14.7676H23.5352V7.39687ZM15.0267 20.7252L20.6031 17.474V16.2324H18.6361L13.5641 19.8155L14.0581 20.5148C14.2792 20.8279 14.6958 20.9183 15.0267 20.7252Z" fill="#75ACFF"/>
</svg>
