<svg width="25" height="25" viewBox="0 0 25 25" fill="none" xmlns="http://www.w3.org/2000/svg">
<path d="M1.99966 4.44932H10.4873V2H15.1296V4.44932H23.6172V18.3568H19.7011V24H15.9029V20.935H9.71404V24H5.91579V18.3568H1.99971V4.44932H1.99966ZM13.8635 3.28905H11.7533V4.44932H13.8635V3.28905ZM18.4351 22.711V18.3568H17.1689V22.711H18.4351ZM15.9029 19.646V18.3568H9.71404V19.646H15.9029ZM7.18177 22.711H8.44797V18.3568H7.18177V22.711ZM3.26569 17.0677H22.3512V5.73837H3.26569V17.0677Z" fill="#75ACFF"/>
<path d="M12.8079 13.9171H13.8276V9.6632H15.0936V13.9171H16.3598V8.18066H17.6258V13.9171H18.892V10.9523H20.158V13.9171H21.1777V15.2061H12.8079V13.9171Z" fill="#75ACFF"/>
<path d="M10.6992 13.3369H4.43959V14.626H10.6992V13.3369Z" fill="#75ACFF"/>
<path d="M10.6992 10.7588H4.43959V12.0478H10.6992V10.7588Z" fill="#75ACFF"/>
<path d="M10.6992 8.18066H4.43959V9.46971H10.6992V8.18066Z" fill="#75ACFF"/>
</svg>
