<svg width="31" height="30" viewBox="0 0 31 30" fill="none" xmlns="http://www.w3.org/2000/svg">
<path d="M23.8536 4.96816C25.785 2.86625 28.1672 1.21019 31 0V5.73248C29.5836 6.56051 28.4247 7.61147 27.5234 8.88535C26.7508 10.0955 26.1713 11.4331 25.785 12.8981C25.3344 14.4904 25.0768 16.051 25.0125 17.5796H31V30H18.4455V22.2611C18.4455 17.7389 18.8962 14.2038 19.7975 11.6561C20.6345 9.29937 21.9865 7.07007 23.8536 4.96816ZM5.4081 4.96816C7.33956 2.86625 9.7217 1.21019 12.5545 0V5.73248C11.0093 6.56051 9.85047 7.61147 9.07788 8.88535C8.36968 10.0318 7.75805 11.3694 7.24299 12.8981C6.8567 14.2994 6.66355 15.8599 6.66355 17.5796H12.5545V30H0V22.2611C0 17.4841 0.450675 13.949 1.35203 11.6561C2.12461 9.29937 3.47663 7.07007 5.4081 4.96816Z" fill="#75ACFF"/>
</svg>
